PathFileType	4	(X/Y/Z)	Run_500 02
DataRate	CameraRate	NumFrames	NumMarkers	Units	OrigDataRate	OrigDataStartFrame	OrigNumFrames
100	100	8	42	mm	100	33	128
Frame#	Time	LASI			RASI			LPSI			RPSI			RTH1			RTH2			RTH3			LTH1			LTH2			LTH3			RTB1			RTB2			RTB3			LTB1			LTB2			LTB3			RCAL			RTOE			RMT5			LCAL			LTOE			LMT5			LACR			RACR			CLAV			C7			RUA1			RUA2			RUA3			RLEL			RMEL			LUA1			LUA2			LUA3			LLEL			LMEL			RFAsuperior			RFAradius			RFAulna			LFAsuperior			LFAradius			LFAulna			
		X1	Y1	Z1	X2	Y2	Z2	X3	Y3	Z3	X4	Y4	Z4	X5	Y5	Z5	X6	Y6	Z6	X7	Y7	Z7	X8	Y8	Z8	X9	Y9	Z9	X10	Y10	Z10	X11	Y11	Z11	X12	Y12	Z12	X13	Y13	Z13	X14	Y14	Z14	X15	Y15	Z15	X16	Y16	Z16	X17	Y17	Z17	X18	Y18	Z18	X19	Y19	Z19	X20	Y20	Z20	X21	Y21	Z21	X22	Y22	Z22	X23	Y23	Z23	X24	Y24	Z24	X25	Y25	Z25	X26	Y26	Z26	X27	Y27	Z27	X28	Y28	Z28	X29	Y29	Z29	X30	Y30	Z30	X31	Y31	Z31	X32	Y32	Z32	X33	Y33	Z33	X34	Y34	Z34	X35	Y35	Z35	X36	Y36	Z36	X37	Y37	Z37	X38	Y38	Z38	X39	Y39	Z39	X40	Y40	Z40	X41	Y41	Z41	X42	Y42	Z42	

31	2.35	831.629813	1014.762035	-418.422007	805.94239	1033.111943	-181.508122	664.346098	1079.946185	-372.661445	654.934289	1084.950935	-274.671215	670.328652	802.861749	-132.023984	701.046634	703.613835	-135.594877	613.045671	636.84515	-158.25862	847.606506	834.971513	-477.060679	941.4897120000001	762.256797	-461.772059	935.028979	644.543044	-431.355798	482.418617	476.40052	-226.842546	391.207648	497.632262	-194.456417	300.081635	439.888063	-265.190017	1064.584854	497.180598	-368.023677	1038.321347	399.599678	-418.476787	1118.038002	317.256502	-348.518887	198.925343	513.436656	-303.269195	171.64235	293.665614	-317.127609	119.263086	340.314781	-230.926372	1082.592184	158.085969	-319.084849	1278.324076	256.910929	-331.672007	1256.45521	190.040392	-418.585718	809.613919	1500.068805	-476.650754	849.841424	1508.909366	-191.662237	909.296126	1427.784919	-328.114864	779.030402	1534.519605	-319.583024	846.324571	1426.307962	-75.70648	791.332355	1361.078603	-49.506791	859.0144	1328.382171	0.952927	863.530357	1262.801046	45.277189	817.594078	1215.255268	1.836881	695.378558	1454.064857	-541.860699	644.241701	1418.558592	-479.301157	621.743111	1396.474679	-562.857095	547.102355	1344.642954	-580.753637	536.282944	1322.374827	-511.423412	957.326699	1277.633475	-25.234607	1004.112562	1281.220452	-153.817824	1032.723993	1226.512942	-122.897326	644.1400599999999	1280.914496	-591.327777	736.0169969999999	1179.407904	-542.88818	687.972953	1152.591609	-588.172114	
32	2.36	830.4808399999999	1012.639341	-418.644437	805.218206	1033.131073	-181.274718	663.324854	1074.373706	-374.067587	654.165714	1081.494097	-276.27991	676.8441780000001	799.663182	-129.799733	709.990936	701.119736	-132.444026	624.331125	631.929476	-154.24642	841.597694	829.093607	-477.618713	932.838257	752.901068	-462.724786	926.004757	637.219542	-429.550836	491.040926	482.702266	-223.755037	402.011326	512.800311	-190.612596	305.248739	466.945766	-261.689204	1053.270116	488.086724	-364.431017	1025.342294	388.934794	-414.644197	1103.515962	305.872169	-344.289696	214.631651	551.679859	-298.994771	160.113133	337.074883	-313.977591	113.421663	389.632654	-227.79388	1065.079878	147.826723	-313.617211	1262.890185	241.608593	-329.447749	1237.552565	175.784654	-416.477881	811.160825	1497.10078	-477.812924	847.34975	1506.975946	-192.478466	908.648325	1425.067717	-327.629527	779.013319	1532.159738	-322.270054	839.46631	1424.936337	-74.439899	781.435822	1361.53922	-49.972801	846.42801	1328.532182	4.336858	848.322542	1263.068281	48.694877	802.485735	1216.482226	4.172045	697.15175	1449.931298	-544.608756	646.3289590000001	1414.042276	-481.956671	624.667612	1391.686603	-565.059792	550.142485	1339.418344	-583.073451	539.301404	1316.375137	-513.923631	945.156308	1272.899432	-18.387977	997.023953	1272.243318	-145.35818	1022.30573	1217.494187	-112.261385	648.615719	1277.829043	-593.890937	741.057637	1176.888506	-545.278323	694.812564	1149.348306	-591.644128	
33	2.37	828.698542	1010.090237	-419.822516	804.828047	1031.069304	-181.655467	662.417965	1067.263317	-374.227818	653.357397	1076.246663	-276.380434	684.028342	795.093982	-127.380653	720.44848	697.156593	-129.020636	637.308171	625.519839	-149.372702	835.680756	824.195046	-478.105998	924.925897	746.284923	-463.646548	918.205725	631.022954	-427.323312	502.600274	488.4297	-220.918856	416.496292	526.493372	-186.401313	315.517421	493.290109	-257.996776	1040.873759	477.522577	-360.750036	1010.1212	377.947181	-410.649221	1084.281417	292.527865	-339.379711	236.496618	587.456672	-294.562491	155.493077	381.459474	-309.940066	115.532471	439.426646	-223.680902	1039.603731	135.647782	-308.627457	1240.690308	222.978984	-323.701812	1213.465773	158.32232	-410.904296	812.385734	1493.086874	-478.636158	844.810997	1503.869543	-193.238992	908.005026	1421.166905	-326.746012	778.992281	1529.630139	-324.811681	832.525564	1423.173251	-73.551917	771.562283	1361.86199	-50.611995	833.4344160000001	1327.540294	7.257239	831.98344	1262.487351	51.885686	786.119492	1217.00475	6.324563	698.822034	1444.674416	-547.035	647.537345	1408.110285	-485.051046	627.866428	1385.092646	-568.380989	553.961484	1332.058818	-586.797598	542.605921	1308.615638	-517.634554	931.735676	1266.53263	-11.230656	989.225835	1260.342775	-136.005988	1010.497644	1205.880339	-100.29358	653.779853	1272.389082	-597.267876	746.617445	1172.274302	-547.966786	702.2207550000001	1144.517074	-595.484599	
34	2.38	826.495491	1006.915521	-421.6652	804.8759700000001	1026.975488	-182.518177	661.609241	1059.496989	-373.407693	652.501456	1069.455259	-274.975423	691.764849	789.029751	-124.913117	732.032539	692.020535	-125.61074	651.512262	618.004747	-143.953579	830.5126749999999	819.817843	-477.279756	918.499974	742.074128	-463.324502	911.401403	625.292092	-425.34585	516.369368	493.475284	-217.356927	433.956473	538.92003	-181.948949	330.36425	518.397623	-254.218847	1027.173722	465.309427	-357.234369	992.559181	366.68653	-406.935465	1060.478704	277.838753	-334.38768	262.899726	620.1683829999999	-290.204583	158.303322	425.258764	-305.093623	126.064978	487.453199	-218.407813	1007.173825	122.201397	-305.077283	1212.128735	202.288853	-314.967575	1184.812762	138.32692	-402.519906	813.160391	1488.107288	-479.13095	842.20659	1499.718235	-193.474938	907.334365	1416.288476	-325.46844	778.6514519999999	1526.417541	-326.840645	825.474225	1420.853279	-72.88288	761.895984	1361.658558	-51.396764	820.380751	1325.476892	9.586387999999999	814.723102	1261.189724	54.685686	768.831188	1216.904628	8.039305000000001	700.42471	1438.32643	-549.323551	648.093468	1400.859184	-488.649629	631.163854	1376.65538	-572.417861	558.47262	1322.684403	-591.786297	546.272828	1298.999254	-522.572527	917.092816	1258.775484	-3.901962	980.518053	1245.841378	-125.592858	997.257824	1191.970576	-86.978264	659.3775869999999	1264.467086	-601.544109	752.763199	1165.808224	-551.1501459999999	710.235202	1137.803158	-599.628168	
35	2.39	824.348329	1002.977612	-423.987083	805.292339	1021.220877	-183.528796	660.637486	1051.580129	-371.900247	651.5459990000001	1061.347274	-272.624231	699.914473	781.743034	-122.396881	744.175901	686.252576	-122.395364	666.4027589999999	609.930551	-138.501606	826.505228	815.116847	-474.769897	913.674715	739.024809	-460.545869	905.19483	619.1718990000001	-424.244955	531.958465	497.564246	-212.561372	453.949026	549.972989	-177.285468	349.267619	541.493476	-250.202463	1011.424183	451.227058	-353.941059	972.217819	354.681625	-403.796165	1033.027494	262.004405	-329.708162	292.840491	649.479638	-285.823145	168.273748	466.776041	-299.645388	144.224661	531.559526	-212.08494	970.2561020000001	109.58251	-302.728259	1178.943582	179.177579	-304.287537	1152.168014	115.662805	-392.647744	813.52886	1482.261799	-479.283407	839.512121	1494.543619	-192.974563	906.556682	1410.620274	-323.882793	777.873417	1521.812285	-328.081542	818.311687	1417.582418	-72.265201	752.393976	1360.600196	-52.262132	807.350985	1322.322998	11.252624	796.793379	1259.333919	56.968788	750.938685	1216.296082	9.157989000000001	702.108527	1430.876917	-551.6343000000001	648.488387	1392.384848	-492.837796	634.674675	1366.486964	-576.865469	563.70502	1311.63301	-597.74954	550.446249	1287.592387	-528.634638	901.330654	1249.810158	3.4668	970.711508	1229.129607	-114.081381	982.418635	1176.069049	-72.472717	665.411967	1254.332815	-606.7766779999999	759.537279	1157.686292	-554.945603	718.9615240000001	1129.016206	-604.193041	
36	2.4	822.658267	998.138076	-426.550077	806.010217	1014.152304	-184.581879	659.167769	1043.520203	-369.925263	650.39688	1052.208658	-270.233588	708.292498	773.82875	-119.886614	756.412843	680.205808	-119.366702	681.741947	601.611095	-133.286634	823.655231	809.05875	-471.733451	909.684149	734.346222	-455.357279	898.0626549999999	611.200029	-423.640396	549.52664	500.455489	-207.09931	476.197271	559.1976100000001	-172.365538	371.738747	561.81184	-245.74288	993.194029	435.122773	-350.508031	949.48549	341.499028	-400.858915	1003.958498	245.301611	-324.964304	325.615993	675.065761	-281.072326	184.742028	504.535579	-293.860477	168.656659	570.087846	-205.010427	932.236836	100.624285	-299.803404	1143.804155	152.668293	-292.773653	1116.358353	91.366316	-382.880288	813.6558199999999	1475.643153	-479.118639	836.702773	1488.282505	-191.86729	905.633093	1404.253083	-322.157901	776.693771	1515.372077	-328.393554	811.03322	1412.994023	-71.592365	742.840662	1358.476334	-53.292148	794.186948	1317.967956	12.1895	778.470492	1257.087793	58.633515	732.709394	1215.303442	9.666266	704.029351	1422.270673	-553.993518	649.178072	1382.692169	-497.5766	638.670089	1354.909808	-581.655749	569.778102	1299.294341	-604.395804	555.249151	1274.618295	-535.591367	884.601094	1239.795532	10.840629	959.536481	1210.451238	-101.645144	965.6759949999999	1158.526812	-57.102088	672.141793	1242.639248	-612.892912	767.0359130000001	1148.087402	-559.369147	728.509788	1118.344072	-609.403913	
37	2.41	821.216255	992.158807	-428.864432	806.864834	1005.946334	-185.943511	656.993483	1035.368593	-367.99137	648.846783	1042.484336	-268.550132	716.7085039999999	765.721553	-117.569054	768.513992	673.914979	-116.407051	697.844471	593.135415	-128.224448	821.374633	800.939543	-469.958019	905.252217	724.928852	-449.518702	888.1528980000001	600.497239	-422.430695	569.527932	502.103166	-202.004144	500.587596	566.073592	-167.199818	397.372915	578.796091	-240.758	973.600148	418.303737	-346.218842	926.672743	328.015077	-397.061585	975.386072	229.287842	-318.898889	360.555043	696.541341	-275.603023	206.933567	537.3514259999999	-287.912983	198.076846	602.067314	-197.489078	895.222577	97.024424	-294.228496	1108.527015	123.916094	-281.377395	1078.104056	69.28234399999999	-374.518018	813.782379	1468.391298	-478.751492	833.724281	1481.044459	-190.383372	904.671646	1397.194862	-320.42937	775.184047	1507.243775	-327.809368	803.495618	1406.930846	-70.83521	732.977355	1355.22031	-54.680302	780.676431	1312.33668	12.304409	760.0070030000001	1254.574373	59.550572	714.3701569999999	1214.002827	9.581556000000001	706.301386	1412.473462	-556.306644	650.402736	1371.688856	-502.727587	643.465463	1342.286273	-586.8147729999999	576.869174	1285.971735	-611.487931	560.893075	1260.349719	-543.154451	867.039681	1228.875871	18.293189	946.631701	1189.825733	-88.478393	946.723508	1139.732339	-41.125145	679.942129	1230.147111	-619.508707	775.493433	1137.316751	-564.365711	739.000322	1106.317529	-615.374534	
38	2.42	819.082811	984.833965	-430.320152	807.338519	996.794581	-187.881819	654.120047	1027.800633	-367.011848	646.544904	1032.880405	-267.661451	725.082817	757.510124	-115.66811	780.617249	667.486454	-113.516505	715.540689	584.794612	-123.157515	818.379428	791.143345	-470.203717	899.535391	710.684149	-445.383852	875.935067	588.693741	-420.136847	592.325651	502.708776	-197.924515	527.213674	570.341979	-161.999085	425.817974	592.117915	-235.402227	955.122014	404.338965	-340.498165	906.872511	316.779516	-391.570973	947.736826	216.863486	-310.516082	396.845497	713.566964	-269.424988	233.887685	564.236339	-281.765293	231.305638	627.10938	-189.705859	858.3771379999999	98.016677	-285.712458	1072.552548	97.64601999999999	-271.036741	1037.510911	54.3927	-368.092126	814.166554	1460.776977	-478.392338	830.483704	1473.347068	-188.554728	903.915489	1389.554094	-318.623014	773.437169	1498.220725	-326.568242	795.403201	1399.595347	-70.052425	722.639266	1350.95565	-56.545155	766.810794	1305.588193	11.528073	741.586266	1251.827932	59.525694	696.139098	1212.415368	8.749086	709.025936	1401.550671	-558.499396	652.2612339999999	1359.319699	-508.153053	649.376999	1328.809405	-592.268984	585.202981	1271.854738	-618.821583	567.821955	1245.02048	-551.101635	848.67923	1217.195892	25.829955	931.650436	1167.373935	-74.58063300000001	925.372345	1120.126163	-24.532048	689.200027	1217.385277	-625.988601	785.277836	1125.868094	-569.825059	750.644091	1093.574105	-621.938434	
